HIERARCHY
ROOT Bip001_Pelvis
{
  OFFSET 34.4345 95.6767 -26.8758
  CHANNELS 6 Xposition Yposition Zposition Zrotation Xrotation Yrotation
  JOINT Bip001_Spine
  {
    OFFSET 1.4188e-005 10.2191 -0.0116013
    CHANNELS 3 Zrotation Xrotation Yrotation
    JOINT Bip001_L_Thigh
    {
      OFFSET 11.0458 -10.2192 0.0116197
      CHANNELS 3 Zrotation Xrotation Yrotation
      JOINT Bip001_L_Calf
      {
        OFFSET -0.707118 -44.0221 0.360014
        CHANNELS 3 Zrotation Xrotation Yrotation
        JOINT Bip001_L_Foot
        {
          OFFSET -0.651902 -40.5938 -3.56146
          CHANNELS 3 Zrotation Xrotation Yrotation
          JOINT Bip001_L_Toe0
          {
            OFFSET 0.0530839 -10.2181 13.1504
            CHANNELS 3 Zrotation Xrotation Yrotation
            End Site
            {
              OFFSET -1.02532e-005 0 7.55606
            }
          }
        }
      }
    }
    JOINT Bip001_R_Thigh
    {
      OFFSET -11.0458 -10.2191 0.0115893
      CHANNELS 3 Zrotation Xrotation Yrotation
      JOINT Bip001_R_Calf
      {
        OFFSET 0.706994 -44.0221 0.35984
        CHANNELS 3 Zrotation Xrotation Yrotation
        JOINT Bip001_R_Foot
        {
          OFFSET 0.651786 -40.5938 -3.5613
          CHANNELS 3 Zrotation Xrotation Yrotation
          JOINT Bip001_R_Toe0
          {
            OFFSET -0.0531479 -10.2181 13.1504
            CHANNELS 3 Zrotation Xrotation Yrotation
            End Site
            {
              OFFSET -1.02894e-005 0 7.55606
            }
          }
        }
      }
    }
    JOINT Bip001_Spine1
    {
      OFFSET 1.87041e-005 14.5736 1.08638
      CHANNELS 3 Zrotation Xrotation Yrotation
      JOINT Bip001_Spine2
      {
        OFFSET 2.24614e-005 14.5058 -1.69078
        CHANNELS 3 Zrotation Xrotation Yrotation
        JOINT Bip001_Neck
        {
          OFFSET 2.20278e-005 15.3945 -0.489414
          CHANNELS 3 Zrotation Xrotation Yrotation
          JOINT Bip001_L_Clavicle
          {
            OFFSET 6.06036 -0.000579998 0.00836775
            CHANNELS 3 Zrotation Xrotation Yrotation
            JOINT Bip001_L_UpperArm
            {
              OFFSET 11.5509 -0.0600302 0.00193952
              CHANNELS 3 Zrotation Xrotation Yrotation
              JOINT Bip001_L_Forearm
              {
                OFFSET 25.9523 0.0806089 -2.15551
                CHANNELS 3 Zrotation Xrotation Yrotation
                JOINT Bip001_L_Hand
                {
                  OFFSET 32.2475 0.153767 1.63968
                  CHANNELS 3 Zrotation Xrotation Yrotation
                  JOINT Bip001_L_Finger0
                  {
                    OFFSET 6.04639 -2.20976 5.90322
                    CHANNELS 3 Zrotation Xrotation Yrotation
                    End Site
                    {
                      OFFSET 4.22375 -1.43895 0.606485
                    }
                  }
                  JOINT Bip001_L_Finger1
                  {
                    OFFSET 11.0826 -0.704819 -0.198153
                    CHANNELS 3 Zrotation Xrotation Yrotation
                    End Site
                    {
                      OFFSET 6.20027 -0.397518 -0.0787166
                    }
                  }
                }
              }
            }
          }
          JOINT Bip001_R_Clavicle
          {
            OFFSET -6.06037 -0.000563197 0.00835105
            CHANNELS 3 Zrotation Xrotation Yrotation
            JOINT Bip001_R_UpperArm
            {
              OFFSET -11.5509 -0.0599978 0.00190698
              CHANNELS 3 Zrotation Xrotation Yrotation
              JOINT Bip001_R_Forearm
              {
                OFFSET -25.9523 0.0806822 -2.15589
                CHANNELS 3 Zrotation Xrotation Yrotation
                JOINT Bip001_R_Hand
                {
                  OFFSET -32.2475 0.153859 1.63989
                  CHANNELS 3 Zrotation Xrotation Yrotation
                  JOINT Bip001_R_Finger0
                  {
                    OFFSET -6.04641 -2.20976 5.90317
                    CHANNELS 3 Zrotation Xrotation Yrotation
                    End Site
                    {
                      OFFSET -4.22376 -1.43895 0.60647
                    }
                  }
                  JOINT Bip001_R_Finger1
                  {
                    OFFSET -11.0826 -0.704794 -0.198182
                    CHANNELS 3 Zrotation Xrotation Yrotation
                    End Site
                    {
                      OFFSET -6.20028 -0.397504 -0.0787333
                    }
                  }
                }
              }
            }
          }
          JOINT Bip001_Head
          {
            OFFSET 1.09673e-005 11.2744 2.05948
            CHANNELS 3 Zrotation Xrotation Yrotation
            End Site
            {
              OFFSET 2.89576e-005 20.8808 -2.77728e-005
            }
          }
        }
      }
    }
  }
}
MOTION
Frames:	13
Frame Time:	0.04
31.5494 95.8042 -30.41 1.59014 -2.06324 0.654118 -0.0304208 2.24833 -0.200894 4.81481 0.443017 11.8079 0.706618 4.75277 -2.44255 -1.19981 -2.92594 0.0452166 0.813137 -3.60838 -0.479165 -5.48155 -2.80475 -0.37378 1.0699 12.3074 -0.214642 -6.09664 -9.80683 -0.0472323 2.31734 -7.828 2.42715 -0.0530075 4.49675 -0.401055 -0.0530064 4.49676 -0.401055 3.06214 -4.86481 -2.26332 -25.9323 6.19331 -2.01744 -48.9171 38.6789 -1.57318 13.7575 -6.95978 -31.8256 11.4061 0.139861 -5.99228 3.18055e-015 -3.18055e-015 -3.18055e-015 -6.36111e-015 0 -3.18055e-015 22.9212 13.9106 22.7643 57.4092 38.4005 -11.2262 -23.7531 4.83924 17.8326 1.55647 -7.44001 -1.25151 -1.76556e-031 -6.36111e-015 -1.59028e-015 -1.76556e-031 -6.36111e-015 -1.59028e-015 -0.499294 6.96445 -1.25788 
31.4346 95.8022 -30.5324 1.33405 -2.18058 0.28582 0.0938214 2.32134 -0.426316 5.16071 0.25895 10.5042 0.445562 5.34613 -0.504952 -1.90168 -3.55858 0.0564331 0.500416 -3.08299 -0.210034 -5.30165 -2.8309 -0.688834 0.926145 12.1211 -0.113773 -5.93261 -9.79114 0.710187 2.31228 -7.83681 2.42721 0.205199 4.64191 -0.857483 0.2052 4.64193 -0.857484 3.59993 -3.88339 -1.67838 -26.3917 5.54453 -2.96949 -49.4912 39.9064 -1.24612 14.0622 -7.02745 -31.3179 10.495 0.337612 -5.80485 -3.18055e-015 0 -3.18055e-015 3.18055e-015 3.18056e-015 -3.18055e-015 22.8534 12.3665 21.1027 59.3283 34.3515 -12.7011 -21.6775 2.99376 16.1028 2.21671 -7.1546 -3.18735 -1.59028e-015 0 -2.38542e-015 -4.77083e-015 0 -1.59028e-015 -1.17384 5.60242 -0.35741 
31.3032 95.794 -30.5508 1.13247 -2.43757 -0.494927 0.172679 2.44686 -0.619464 5.31755 0.481291 10.8298 0.378071 5.47821 -0.114662 -1.34555 -3.27886 0.0563294 0.627981 -3.47018 -0.255664 -5.08355 -2.8909 -0.38647 0.772046 12.1313 -0.0304028 -5.74754 -9.81473 1.23235 2.26694 -7.71295 2.40463 0.372389 4.89174 -1.24804 0.372388 4.89173 -1.24804 3.64706 -3.47211 -0.834068 -26.2812 5.42973 -3.51636 -50.3744 40.4814 -0.867032 14.6297 -6.17809 -30.7159 9.44684 0.52628 -5.44153 -6.36111e-015 3.18055e-015 -3.18055e-015 -3.18055e-015 0 -3.18055e-015 23.1176 11.4643 19.7825 60.5939 30.7892 -13.7368 -20.5521 0.272693 14.8531 3.58961 -6.82769 -4.60781 3.97569e-016 -6.36111e-015 -0 3.97569e-016 -6.36111e-015 -0 -1.27424 4.84286 0.491964 
31.2262 95.815 -30.5674 0.9852 -2.47507 -1.35354 0.238827 2.53121 -0.831806 5.47268 0.728547 11.0558 0.161765 5.31979 0.904301 -1.69668 -3.42899 0.0562029 0.587954 -3.26536 -0.258755 -5.01003 -3.08772 -0.0866795 0.725318 12.0375 0.0710803 -5.55961 -9.77345 1.8635 2.24178 -7.63137 2.37238 0.51521 5.05866 -1.67663 0.515211 5.05867 -1.67664 3.33065 -3.21155 0.119968 -25.7592 5.42894 -3.85464 -51.6117 40.8876 -0.23905 15.1493 -5.14919 -29.9922 8.72545 0.415785 -5.05987 3.18055e-015 0 3.18055e-015 6.36111e-015 3.18056e-015 -3.18055e-015 23.6613 10.6267 18.3 62.9558 31.4714 -16.2318 -20.3189 -3.02343 14.4206 5.185 -7.41049 -5.21166 7.95139e-016 0 -1.19271e-015 0 0 -1.19271e-015 -1.28969 4.12029 1.32663 
31.1508 95.8077 -30.5879 0.813167 -2.39816 -2.24536 0.304763 2.56954 -0.960567 5.41435 0.77007 12.4278 0.513928 5.35105 0.35506 -1.61309 -3.32818 0.0560342 0.608144 -3.476 -0.221698 -4.88484 -3.33877 0.723587 0.761467 11.9128 -0.0268316 -5.39458 -9.70833 2.12763 2.20617 -7.53602 2.35836 0.653637 5.13355 -1.93774 0.653638 5.13355 -1.93774 3.68818 -2.37271 0.687146 -26.0921 4.92153 -4.7198 -52.8235 41.7008 0.818053 15.082 -4.88383 -29.0382 9.26393 0.251004 -5.02007 -3.18055e-015 6.36111e-015 3.18055e-015 0 6.36111e-015 -0 23.6504 9.38677 17.1823 63.3729 30.3989 -16.7093 -20.3793 -2.0493 13.5088 5.68503 -8.48172 -3.68039 7.95139e-016 -3.18055e-015 7.95139e-016 -1.19271e-015 0 1.19271e-015 -2.01411 2.64397 2.17161 
31.1218 95.8062 -30.5796 0.740237 -2.28178 -3.12069 0.340585 2.59759 -1.06827 5.34644 0.927707 13.7701 0.610757 5.13864 -0.163113 -1.32457 -3.16245 0.0558544 0.637661 -3.69754 -0.20877 -4.88334 -3.61627 1.26666 0.788431 11.8391 -0.0772399 -5.15181 -9.72967 2.55966 2.15018 -7.38264 2.3333 0.729583 5.1883 -2.15535 0.730002 5.18837 -2.15528 3.70793 -1.91265 1.3318 -25.9795 4.8084 -5.58265 -54.2316 42.7418 1.98943 14.6855 -5.80755 -27.9565 8.93334 0.509853 -4.73282 0 0 -0 -8.82782e-032 3.18056e-015 1.59028e-015 23.614 8.40053 15.9151 63.6948 28.9884 -16.2355 -20.5147 -0.574866 12.4403 4.32375 -9.40609 -2.03113 3.97569e-016 3.18055e-015 3.57812e-015 -5.96354e-016 3.18056e-015 3.57812e-015 -2.65349 1.51093 2.95577 
31.1157 95.8219 -30.6374 0.701697 -1.99992 -3.63038 0.349254 2.56455 -1.23003 5.344 0.785911 13.6477 0.582843 5.07698 0.676817 -1.33704 -3.0569 0.0556905 0.672929 -3.75752 -0.224755 -4.87568 -3.90521 1.57054 0.801986 11.6211 -0.108045 -4.90073 -9.63398 2.97587 2.12613 -7.28238 2.27189 0.754525 5.12097 -2.47944 0.754732 5.12097 -2.47943 2.97862 -2.01771 2.1284 -24.8808 5.13883 -6.06965 -55.7869 43.8115 3.13453 14.6546 -5.96501 -26.7931 8.10732 0.765696 -4.35691 3.18055e-015 -3.18055e-015 -0 -0 0 1.59028e-015 24.1678 7.8144 14.2932 64.0954 27.6514 -15.5358 -20.4282 0.0298175 12.029 -0.20597 -9.73512 -2.11453 2.18663e-015 0 -1.68967e-015 2.28602e-015 6.36111e-015 -9.93923e-016 -2.27882 1.3517 3.43251 
31.0978 95.8411 -30.6725 0.566601 -1.83509 -3.96825 0.378534 2.53263 -1.35499 5.5344 0.64433 13.8357 0.528938 5.3295 1.1518 -2.02578 -3.55087 0.0556256 0.482339 -3.35025 -0.104966 -4.73252 -3.92385 1.77974 0.738849 11.2142 -0.108879 -4.76987 -9.46446 3.18678 2.09335 -7.22849 2.27603 0.818176 5.05554 -2.73073 0.818175 5.05554 -2.73073 2.7579 -1.84807 2.78328 -24.6008 5.21461 -6.61481 -56.8739 44.0669 4.20721 14.82 -4.99226 -25.8819 7.04306 0.897116 -4.08316 3.18055e-015 1.27222e-014 -1.59028e-015 3.53113e-031 1.27222e-014 -1.59028e-015 24.3462 7.07971 12.9126 63.7738 24.025 -14.688 -21.4406 -0.0992416 12.9399 -2.73456 -10.9737 -1.62982 1.59028e-015 -6.36111e-015 1.19271e-015 8.94531e-016 -6.36111e-015 7.95139e-016 -2.49687 0.899693 4.06774 
31.1127 95.8261 -30.7015 0.452618 -1.71825 -4.17745 0.422289 2.51021 -1.44889 5.62799 0.459354 14.3145 0.485762 5.60943 0.824846 -1.45917 -3.44632 0.051303 0.604152 -3.66491 -0.158649 -4.66942 -4.05472 1.94143 0.746684 11.1683 -0.0783834 -4.73138 -9.42428 3.2769 2.10065 -7.24781 2.29486 0.913007 5.00884 -2.92036 0.909371 5.00876 -2.92047 2.62515 -1.7381 3.44923 -24.6542 5.31766 -6.9283 -57.4445 43.9561 4.9481 15.0309 -3.72604 -25.3542 5.98974 1.07286 -3.77674 0 0 -0 -3.18055e-015 0 -0 24.2401 6.39778 11.5572 63.1974 18.0083 -14.3874 -23.1157 -1.87085 16.6669 -6.48563 -11.6902 -1.15256 3.77691e-015 0 7.95139e-016 3.97569e-015 0 7.95139e-016 -3.12807 0.456066 4.81303 
31.1817 95.8094 -30.7119 0.379532 -1.69474 -4.18518 0.440049 2.50655 -1.54272 5.7223 0.313902 13.8072 0.367033 5.92692 1.47371 -1.66148 -3.76803 0.04804 0.512475 -3.49343 -0.089203 -4.65653 -4.1057 2.16663 0.787213 11.1829 -0.125909 -4.76845 -9.3749 3.22917 2.1351 -7.34031 2.32429 0.947196 5.00838 -3.10925 0.948311 5.00833 -3.10915 1.83818 -1.2722 4.24248 -23.8817 5.06347 -7.44629 -58.0021 43.413 5.60857 15.3179 -2.82878 -25.2404 5.35187 1.28626 -3.66084 1.76556e-031 3.18055e-015 -3.18055e-015 3.18055e-015 3.18056e-015 -3.18055e-015 24.497 5.30349 10.3302 63.1184 11.9077 -14.914 -26.9264 0.347296 23.0919 -12.8665 -12.3908 -0.512159 3.18055e-015 3.18055e-015 1.59028e-015 1.59028e-015 4.77083e-015 -0 -2.78295 -0.669687 5.28386 
31.2854 95.8119 -30.6742 0.336918 -1.73604 -3.96971 0.419304 2.50423 -1.6078 5.77352 0.302235 13.5717 0.21689 5.9969 1.47812 -1.09402 -3.58484 0.0441115 0.668945 -3.7576 -0.22855 -4.59994 -3.92895 2.41421 0.748677 11.0279 -0.181079 -4.88966 -9.28652 2.91939 2.15794 -7.40713 2.34031 0.910748 5.00847 -3.23855 0.910758 5.00846 -3.2386 1.88332 -0.899782 4.91167 -24.0087 4.88395 -7.75237 -58.0527 42.9151 6.23557 15.2867 -2.58259 -25.6037 5.57377 1.09798 -3.78126 -6.36111e-015 3.18055e-015 -0 1.76556e-031 3.18056e-015 -3.18055e-015 23.9905 4.43167 9.18392 62.7459 6.60568 -15.4299 -32.3962 3.076 30.4757 -17.8561 -13.7743 1.51635 1.19271e-015 0 -3.18055e-015 4.37326e-015 1.59028e-015 -6.36111e-015 -3.31164 -1.18248 6.06621 
31.3996 95.7789 -30.613 0.212864 -1.88549 -3.60179 0.391132 2.50187 -1.629 6.09744 0.0951239 14.2891 0.0101708 6.8098 0.513226 -0.987987 -4.1781 0.0372555 0.69962 -3.69866 -0.276749 -4.47823 -3.62226 2.946 0.82178 10.9158 -0.224379 -5.12644 -9.16282 2.16186 2.2255 -7.62115 2.41557 0.855283 5.00486 -3.28107 0.855171 5.00489 -3.28047 1.70358 -0.62986 5.55139 -23.5611 4.76279 -8.17515 -58.3666 42.7335 6.82607 15.2321 -2.74629 -25.9263 6.41472 0.678294 -4.11393 6.36111e-015 9.54166e-015 -1.59028e-015 3.18055e-015 6.36111e-015 -3.18055e-015 23.8831 3.85597 8.60491 61.1736 0.475913 -16.0677 -40.2853 7.95147 39.6098 -23.6402 -14.1819 2.74302 -1.19271e-015 -6.75868e-015 3.18055e-015 -5.1684e-015 -6.36111e-015 3.18055e-015 -3.50112 -1.18485 6.67383 
31.5627 95.7558 -30.5659 0.135336 -2.05309 -3.12688 0.36067 2.49722 -1.5449 6.26028 -0.00601996 14.1732 -0.198962 7.27876 0.00192941 -0.445371 -4.33613 0.0266526 0.829783 -3.93417 -0.348148 -4.47014 -3.25942 2.16035 0.689195 10.8338 -0.0259581 -5.17754 -9.17116 2.26017 2.29665 -7.84001 2.48625 0.789815 4.98427 -3.10993 0.789817 4.98427 -3.10994 1.74311 -0.225545 5.7944 -23.4221 4.46849 -8.57053 -58.51 43.1185 7.28909 15.3441 -3.16246 -26.1735 6.87421 0.421986 -4.51427 3.18055e-015 -3.18055e-015 1.59028e-015 -3.18055e-015 -3.18056e-015 1.59028e-015 23.6076 3.38798 8.56363 57.9562 -8.22739 -16.8222 -48.4443 11.4606 51.5053 -28.716 -15.0559 4.08066 6.85807e-015 4.07509e-015 6.36111e-015 1.2921e-015 5.56597e-015 3.18055e-015 -3.8374 -1.44048 7.04683 
